<svg width="44" height="16" viewBox="0 0 44 16" fill="none" xmlns="http://www.w3.org/2000/svg">
<g clip-path="url(#clip0_1341_12)">
<path d="M31.9366 2.45199L33.8799 3.51299L23.2887 9.29199C23.119 9.38514 22.9172 9.45907 22.6949 9.50952C22.4726 9.55997 22.2342 9.58594 21.9935 9.58594C21.7527 9.58594 21.5143 9.55997 21.292 9.50952C21.0697 9.45907 20.8679 9.38514 20.6982 9.29199L10.1016 3.51299L12.0449 2.45299L21.9907 7.87699L31.9366 2.45199Z" fill="#898989"/>
</g>
<g clip-path="url(#clip1_1341_12)">
<path d="M31.9366 6.45199L33.8799 7.51299L23.2887 13.292C23.119 13.3851 22.9172 13.4591 22.6949 13.5095C22.4726 13.56 22.2342 13.5859 21.9935 13.5859C21.7527 13.5859 21.5143 13.56 21.292 13.5095C21.0697 13.4591 20.8679 13.3851 20.6982 13.292L10.1016 7.51299L12.0449 6.45299L21.9907 11.877L31.9366 6.45199Z" fill="#898989"/>
</g>
<defs>
<clipPath id="clip0_1341_12">
<rect width="12" height="44" fill="white" transform="matrix(0 1 -1 0 44 0)"/>
</clipPath>
<clipPath id="clip1_1341_12">
<rect width="12" height="44" fill="white" transform="matrix(0 1 -1 0 44 4)"/>
</clipPath>
</defs>
</svg>
